<svg width="283" height="283" xmlns="http://www.w3.org/2000/svg" xmlns:xlink="http://www.w3.org/1999/xlink" overflow="hidden"><g transform="translate(-627 -90)"><rect x="741" y="110" width="56" height="147" fill="#A6A6A6"/><g><g><g><path d="M769 101.75C749.532 101.75 733.75 117.532 733.75 137L733.75 231C733.75 250.468 749.532 266.25 769 266.25 788.468 266.25 804.25 250.468 804.25 231L804.25 137C804.25 117.532 788.468 101.75 769 101.75Z" stroke="#000000" stroke-width="23.5" stroke-linecap="round" stroke-linejoin="round" fill="none"/><path d="M851.25 207.5 851.25 231C851.25 276.425 814.425 313.25 769 313.25 723.575 313.25 686.75 276.425 686.75 231L686.75 207.5" stroke="#000000" stroke-width="23.5" stroke-linecap="round" stroke-linejoin="round" fill="none"/><path d="M769 313.25 769 360.25" stroke="#000000" stroke-width="23.5" stroke-linecap="round" stroke-linejoin="round" fill="none"/><path d="M722 360.25 816 360.25" stroke="#000000" stroke-width="23.5" stroke-linecap="round" stroke-linejoin="round" fill="none"/></g></g></g></g></svg>